<svg width="100" height="84" viewBox="0 0 100 84" fill="none" xmlns="http://www.w3.org/2000/svg">
<path fill-rule="evenodd" clip-rule="evenodd" d="M14.6412 66.8852L44.7434 17.9691C47.1535 14.0526 52.8464 14.0526 55.2565 17.9691L85.3587 66.8852C87.8894 70.9975 84.9307 76.2921 80.1021 76.2921H19.8977C15.0691 76.2921 12.1105 70.9975 14.6412 66.8852ZM45.9683 39.0634C45.9683 36.924 47.7026 35.1897 49.842 35.1897C51.9814 35.1897 53.7157 36.924 53.7157 39.0634V53.4896C53.7157 55.629 51.9814 57.3633 49.842 57.3633C47.7026 57.3633 45.9683 55.629 45.9683 53.4896V39.0634ZM49.8441 69.4579C51.9846 69.4579 53.7198 67.7227 53.7198 65.5822C53.7198 63.4417 51.9846 61.7064 49.8441 61.7064C47.7036 61.7064 45.9683 63.4417 45.9683 65.5822C45.9683 67.7227 47.7036 69.4579 49.8441 69.4579Z" fill="#D9D0BE"/>
</svg>
