<svg width="85" height="85" viewBox="0 0 85 85" fill="none" xmlns="http://www.w3.org/2000/svg">
<path fill-rule="evenodd" clip-rule="evenodd" d="M42.5 85C65.9721 85 85 65.9721 85 42.5C85 19.0279 65.9721 0 42.5 0C19.0279 0 0 19.0279 0 42.5C0 65.9721 19.0279 85 42.5 85ZM51.0485 44.6442C52.5346 43.7154 52.5346 41.5511 51.0485 40.6223L40.4416 33.993C38.8622 33.0058 36.8134 34.1413 36.8134 36.0039V49.2625C36.8134 51.1251 38.8622 52.2606 40.4417 51.2735L51.0485 44.6442ZM51.5484 14.121C51.5484 19.0426 47.5586 23.0323 42.6371 23.0323C37.7155 23.0323 33.7258 19.0426 33.7258 14.121C33.7258 9.19941 37.7155 5.20969 42.6371 5.20969C47.5586 5.20969 51.5484 9.19941 51.5484 14.121ZM67.3145 38.1129C72.2361 38.1129 76.2258 34.1232 76.2258 29.2016C76.2258 24.28 72.2361 20.2903 67.3145 20.2903C62.3929 20.2903 58.4032 24.28 58.4032 29.2016C58.4032 34.1232 62.3929 38.1129 67.3145 38.1129ZM76.2258 55.25C76.2258 60.1716 72.2361 64.1613 67.3145 64.1613C62.3929 64.1613 58.4032 60.1716 58.4032 55.25C58.4032 50.3284 62.3929 46.3387 67.3145 46.3387C72.2361 46.3387 76.2258 50.3284 76.2258 55.25ZM42.6371 79.2419C47.5586 79.2419 51.5484 75.2522 51.5484 70.3306C51.5484 65.4091 47.5586 61.4193 42.6371 61.4193C37.7155 61.4193 33.7258 65.4091 33.7258 70.3306C33.7258 75.2522 37.7155 79.2419 42.6371 79.2419ZM26.871 55.25C26.871 60.1716 22.8813 64.1613 17.9597 64.1613C13.0382 64.1613 9.04843 60.1716 9.04843 55.25C9.04843 50.3284 13.0382 46.3387 17.9597 46.3387C22.8813 46.3387 26.871 50.3284 26.871 55.25ZM17.9597 38.1129C22.8813 38.1129 26.871 34.1232 26.871 29.2016C26.871 24.28 22.8813 20.2903 17.9597 20.2903C13.0382 20.2903 9.04843 24.28 9.04843 29.2016C9.04843 34.1232 13.0382 38.1129 17.9597 38.1129Z" fill="url(#paint0_linear_447_940)"/>
<defs>
<linearGradient id="paint0_linear_447_940" x1="42.5" y1="0" x2="42.5" y2="85" gradientUnits="userSpaceOnUse">
<stop stop-color="#D9D0BE"/>
<stop offset="1" stop-color="#9F998C"/>
</linearGradient>
</defs>
</svg>
