<svg width="44" height="44" viewBox="0 0 44 44" fill="none" xmlns="http://www.w3.org/2000/svg">
<path fill-rule="evenodd" clip-rule="evenodd" d="M22 37C30.2843 37 37 30.2843 37 22C37 13.7157 30.2843 7 22 7C13.7157 7 7 13.7157 7 22C7 30.2843 13.7157 37 22 37ZM18.4452 15.5547C17.8594 14.9689 16.9097 14.9689 16.3239 15.5547C15.7381 16.1405 15.7381 17.0902 16.3239 17.676L20.2633 21.6154L16.3239 25.5547C15.7381 26.1405 15.7381 27.0902 16.3239 27.676C16.9097 28.2618 17.8594 28.2618 18.4452 27.676L22.3846 23.7367L26.3239 27.676C26.9097 28.2618 27.8594 28.2618 28.4452 27.676C29.031 27.0902 29.031 26.1405 28.4452 25.5547L24.5059 21.6154L28.4452 17.676C29.031 17.0902 29.031 16.1405 28.4452 15.5547C27.8594 14.9689 26.9097 14.9689 26.3239 15.5547L22.3846 19.494L18.4452 15.5547Z" fill="#BEBEBE"/>
</svg>
