<svg width="120" height="112" viewBox="0 0 120 112" fill="none" xmlns="http://www.w3.org/2000/svg">
<path d="M48.9294 28.1956C51.7211 28.1956 53.9259 28.7983 55.5437 30.0038C57.1616 31.1776 57.9706 32.9382 57.9706 35.2858C57.9706 36.2058 57.812 37.1099 57.4947 37.9981C57.1775 38.8864 56.7651 39.7429 56.2575 40.5677C55.7817 41.3925 55.2265 42.2015 54.592 42.9946C53.9893 43.7877 53.4024 44.5332 52.8314 45.2311C51.9431 46.3414 51.1818 47.3724 50.5473 48.3241C49.9128 49.2441 49.3894 50.291 48.977 51.4647L43.124 49.8944C43.124 48.3082 43.4571 46.8648 44.1233 45.5642C44.7895 44.2318 45.5191 43.0104 46.3122 41.9001C47.137 40.7581 47.8825 39.7112 48.5487 38.7595C49.2149 37.7761 49.548 36.8561 49.548 35.9996C49.548 35.3968 49.326 34.8416 48.8818 34.3341C48.4694 33.7948 47.8667 33.5251 47.0736 33.5251C46.6612 33.5251 46.2646 33.5568 45.884 33.6203C45.535 33.6837 45.1543 33.7948 44.7419 33.9534C44.3612 34.0803 43.9171 34.2706 43.4095 34.5244C42.902 34.7465 42.2992 35.0161 41.6013 35.3334L39.2696 30.5748C40.6337 29.9404 42.0613 29.3852 43.5523 28.9094C45.0433 28.4335 46.8357 28.1956 48.9294 28.1956ZM46.1695 52.8447C47.5019 52.8447 48.517 53.2412 49.2149 54.0343C49.9446 54.8274 50.3094 55.8267 50.3094 57.0322C50.3094 58.2377 49.9446 59.2687 49.2149 60.1252C48.517 60.95 47.4701 61.3624 46.0743 61.3624C44.7419 61.3624 43.7109 60.95 42.9813 60.1252C42.2833 59.3004 41.9344 58.3329 41.9344 57.2225C41.9344 55.9853 42.2833 54.9543 42.9813 54.1295C43.7109 53.273 44.7736 52.8447 46.1695 52.8447Z" fill="#D9D0BE"/>
<path fill-rule="evenodd" clip-rule="evenodd" d="M73.2458 48.2079C71.4126 62.543 58.3057 72.6777 43.9706 70.8445C29.6356 69.0114 19.5008 55.9044 21.334 41.5693C23.1672 27.2343 36.2742 17.0995 50.6092 18.9327C64.9443 20.7659 75.079 33.8729 73.2458 48.2079ZM67.5894 79.5001C60.1973 83.8426 51.3624 85.8594 42.2003 84.6877C20.2199 81.8768 4.67997 61.7795 7.49087 39.7991C10.3018 17.8186 30.3991 2.27868 52.3795 5.08958C74.3599 7.90047 89.8999 27.9978 87.089 49.9782C86.1216 57.5432 83.1066 64.3452 78.6719 69.8988L97.9322 90.5877C100.558 93.4084 100.4 97.8238 97.5795 100.45L97.0688 100.925C94.2481 103.551 89.8327 103.393 87.2068 100.573L67.5894 79.5001Z" fill="#D9D0BE"/>
</svg>
