<svg width="81" height="11" viewBox="0 0 81 11" fill="none" xmlns="http://www.w3.org/2000/svg">
<g clip-path="url(#clip0_44_814)">
<path d="M56.8351 10.4783H75.7653C76.4527 10.4783 77.1334 10.3429 77.7685 10.0798C78.4036 9.81674 78.9807 9.43115 79.4668 8.94507C79.9529 8.45898 80.3385 7.88191 80.6015 7.24681C80.8646 6.61171 81 5.93101 81 5.24358C81.0012 4.5554 80.8666 3.87375 80.6041 3.23762C80.3415 2.60149 79.9561 2.02338 79.4699 1.53635C78.9837 1.04932 78.4063 0.662939 77.7706 0.399316C77.1349 0.135692 76.4535 -9.91832e-07 75.7653 0L56.8351 0C56.1469 -9.91832e-07 55.4655 0.135692 54.8298 0.399316C54.1941 0.662939 53.6167 1.04932 53.1305 1.53635C52.6442 2.02338 52.2589 2.60149 51.9963 3.23762C51.7338 3.87375 51.5992 4.5554 51.6004 5.24358C51.6004 6.63191 52.1519 7.96337 53.1336 8.94507C54.1153 9.92676 55.4468 10.4783 56.8351 10.4783ZM2.9921 10.4931H5.30283V2.05003H8.29493V0H0V2.04411H2.9921V10.4931ZM11.3167 10.4931H13.6274V2.44404H13.657L16.3084 10.4872H18.0859L20.8262 2.44404H20.8558V10.4872H23.1666V0H19.6856L17.2564 6.84332H17.2268L14.8124 0H11.3167V10.4931ZM26.4075 0.0355497H29.8736C30.6806 0.0367899 31.4844 0.136271 32.2673 0.331797C32.9803 0.500939 33.6521 0.81119 34.2432 1.24424C34.815 1.67412 35.2752 2.23491 35.5853 2.87953C35.9358 3.64537 36.1051 4.48169 36.08 5.32357C36.096 6.09915 35.9317 6.86786 35.6001 7.56912C35.2912 8.20017 34.8484 8.75623 34.3025 9.19849C33.7437 9.6465 33.1055 9.9852 32.4213 10.1968C31.6981 10.4265 30.9434 10.5414 30.1847 10.5375H26.4075V0.0355497ZM28.7182 8.38973H29.9032C30.4016 8.39313 30.8987 8.33845 31.3845 8.22679C31.8179 8.13882 32.2278 7.96012 32.5872 7.70244C32.9303 7.44281 33.2032 7.10171 33.3812 6.71001C33.5892 6.23618 33.6903 5.72238 33.6774 5.20507C33.6862 4.74155 33.5847 4.28258 33.3812 3.86603C33.1964 3.49689 32.93 3.17471 32.602 2.92396C32.2613 2.67087 31.8766 2.48304 31.4674 2.36998C31.0162 2.2438 30.5495 2.18098 30.081 2.18334H28.7182V8.38973ZM39.4276 0.0355497H43.338C43.797 0.0357735 44.2553 0.0684421 44.7097 0.133311C45.1407 0.189143 45.5587 0.319456 45.945 0.518433C46.3059 0.705702 46.6121 0.983329 46.8338 1.32423C47.0796 1.74022 47.198 2.21916 47.1745 2.70178C47.1948 3.2392 47.0189 3.76566 46.6797 4.18301C46.3335 4.584 45.8772 4.87449 45.3673 5.01843V5.03621C45.6954 5.08305 46.0136 5.18311 46.3094 5.33246C46.5826 5.46963 46.8285 5.65534 47.0352 5.88051C47.24 6.10601 47.398 6.3698 47.5003 6.65668C47.6107 6.96045 47.6658 7.2815 47.6633 7.60467C47.681 8.09144 47.5576 8.57295 47.3078 8.99111C47.0754 9.35511 46.7608 9.65951 46.3894 9.87985C45.9989 10.1142 45.571 10.2796 45.1244 10.3687C44.6639 10.4674 44.1942 10.5171 43.7232 10.5168H39.4276V0.0355497ZM41.7383 4.22745H43.4121C43.5896 4.22842 43.7666 4.20853 43.9394 4.1682C44.1047 4.13231 44.2622 4.06709 44.4045 3.97564C44.5434 3.88611 44.6583 3.76409 44.7393 3.62014C44.8261 3.45611 44.869 3.27241 44.8637 3.0869C44.8732 2.89836 44.828 2.7111 44.7334 2.54773C44.6414 2.40774 44.5163 2.29272 44.369 2.21297C44.2039 2.13008 44.0271 2.07313 43.8446 2.04411C43.664 2.00918 43.4805 1.99133 43.2966 1.99078H41.7265L41.7383 4.22745ZM41.7383 8.56748H43.812C43.9944 8.56797 44.1762 8.54809 44.3542 8.50823C44.531 8.47204 44.6991 8.4016 44.8489 8.30086C44.9984 8.20221 45.1231 8.07042 45.2133 7.91573C45.3106 7.73912 45.3587 7.53961 45.3525 7.33805C45.3604 7.12542 45.2956 6.91644 45.1689 6.74556C45.0445 6.5918 44.8835 6.47162 44.7008 6.39598C44.511 6.3169 44.3119 6.26215 44.1083 6.23305C43.9071 6.20448 43.7042 6.18963 43.501 6.18861H41.7531L41.7383 8.56748Z" fill="url(#paint0_linear_44_814)"/>
</g>
<defs>
<linearGradient id="paint0_linear_44_814" x1="0" y1="5.26136" x2="81" y2="5.26136" gradientUnits="userSpaceOnUse">
<stop stop-color="#90CEA1"/>
<stop offset="0.56" stop-color="#3CBEC9"/>
<stop offset="1" stop-color="#00B3E5"/>
</linearGradient>
<clipPath id="clip0_44_814">
<rect width="81" height="10.5227" fill="white"/>
</clipPath>
</defs>
</svg>
