<svg width="119" height="115" viewBox="0 0 119 115" fill="none" xmlns="http://www.w3.org/2000/svg">
<path fill-rule="evenodd" clip-rule="evenodd" d="M43.3085 82.2535V67.9467C39.1034 67.9976 34.9994 68.3481 31.1956 68.9642C31.8074 70.6696 32.4785 72.2616 33.1994 73.7253C36.2707 79.9616 39.6519 82.8466 42.4441 83.658L39.3265 88.7241C17.1863 86.1556 0 67.3406 0 44.5115C0 20.1924 19.5028 0.428439 43.7213 0.00687201C43.8508 0.00229697 43.9805 0 44.1105 0C44.1546 0 44.1987 0.000264868 44.2428 0.000793865C44.3323 0.000264868 44.4218 0 44.5115 0C69.0944 0 89.0229 19.9285 89.0229 44.5115C89.0229 48.4142 88.5206 52.1996 87.5772 55.8066L83.6111 49.3616C83.6275 49.2277 83.6432 49.0936 83.6583 48.9593H83.3635L82.9373 48.2668C81.6339 46.1487 79.7911 44.6741 77.7366 43.8431H83.9011C83.7475 34.6115 80.4186 26.1526 74.9592 19.5113C72.2075 21.1217 68.6545 22.5064 64.4915 23.5757C64.1716 23.6578 63.8489 23.7379 63.5235 23.816C65.0776 29.814 65.9772 36.6202 66.0296 43.8431H69.4241C67.3696 44.6741 65.5268 46.1487 64.2234 48.2668L60.3123 54.6221C60.5361 52.787 60.7009 50.8964 60.8013 48.9593H48.4247V62.9118C50.6208 63.0076 52.7854 63.1808 54.8932 63.4283L51.9161 68.266C50.7679 68.1655 49.6026 68.0876 48.4247 68.0332V73.9395L43.3085 82.2535ZM43.3085 62.8301V48.9593H27.4196C27.7024 54.4186 28.4978 59.5081 29.678 64.0305C33.9736 63.2935 38.599 62.884 43.3085 62.8301ZM60.9132 43.8431H48.4247V25.8436C51.8914 25.6925 55.2829 25.3482 58.4982 24.8221C59.9736 30.412 60.8598 36.8778 60.9132 43.8431ZM27.3077 43.8431H43.3084V25.9254C38.618 25.8717 34.017 25.4654 29.7453 24.7365C28.2564 30.346 27.3614 36.8423 27.3077 43.8431ZM24.7294 23.6933C23.1556 29.7211 22.244 36.5709 22.1913 43.8431H5.12181C5.27458 34.6601 8.56936 26.2417 13.9777 19.6164C16.5289 21.0818 19.7513 22.358 23.5021 23.3746C23.9063 23.4842 24.3155 23.5904 24.7294 23.6933ZM13.83 69.2246C9.25527 63.5522 6.22144 56.5851 5.36457 48.9593L22.297 48.9593C22.5788 54.7273 23.4029 60.1714 24.6643 65.0784C24.5304 65.1119 24.397 65.1457 24.2641 65.1798C20.118 66.2447 16.577 67.6225 13.83 69.2246ZM43.3084 20.8088V5.17569C40.3699 5.6041 36.5952 8.4024 33.1994 15.2976C32.5142 16.6888 31.874 18.1958 31.287 19.806C35.0582 20.4119 39.1291 20.7582 43.3084 20.8088ZM48.4247 20.7222C51.3694 20.5863 54.2392 20.3033 56.9628 19.8854C56.3679 18.2454 55.7179 16.7117 55.0215 15.2976C52.8717 10.9323 50.57 8.2091 48.4247 6.6897V20.7222ZM25.5368 70.1352C22.1864 70.9958 19.4754 72.0258 17.4036 73.0974C21.5896 77.0682 26.6471 80.1294 32.2595 81.9642C29.8529 78.8182 27.7693 74.742 26.1317 69.9859C25.9321 70.0349 25.7338 70.0846 25.5368 70.1352ZM71.3408 15.6639C69.2705 16.7333 66.5632 17.7613 63.2187 18.6203C62.8324 18.7195 62.441 18.8156 62.0448 18.9085C60.356 14.0402 58.1986 9.89033 55.7057 6.72941C61.6154 8.47765 66.9459 11.5747 71.3408 15.6639ZM26.2172 18.7905C27.8415 14.14 29.8946 10.1502 32.2595 7.05869C26.7291 8.86671 21.7374 11.8655 17.5875 15.7522C19.4755 16.7091 21.8884 17.6364 24.8405 18.4365C25.2919 18.5589 25.751 18.6769 26.2172 18.7905Z" fill="#D9D0BE"/>
<path fill-rule="evenodd" clip-rule="evenodd" d="M41.8406 98.1035L69.1853 53.6683C71.3747 50.1106 76.5461 50.1106 78.7354 53.6683L106.08 98.1035C108.379 101.839 105.691 106.649 101.305 106.649H46.6156C42.2293 106.649 39.5417 101.839 41.8406 98.1035ZM70.298 72.8302C70.298 70.8868 71.8734 69.3114 73.8169 69.3114C75.7603 69.3114 77.3357 70.8868 77.3357 72.8302V85.9349C77.3357 87.8783 75.7603 89.4538 73.8169 89.4538C71.8734 89.4538 70.298 87.8783 70.298 85.9349V72.8302ZM73.8188 100.441C75.7632 100.441 77.3395 98.8643 77.3395 96.9198C77.3395 94.9754 75.7632 93.3991 73.8188 93.3991C71.8744 93.3991 70.2981 94.9754 70.2981 96.9198C70.2981 98.8643 71.8744 100.441 73.8188 100.441Z" fill="#D9D0BE"/>
</svg>
