<svg width="44" height="44" viewBox="0 0 44 44" fill="none" xmlns="http://www.w3.org/2000/svg">
<path opacity="0.5" fill-rule="evenodd" clip-rule="evenodd" d="M25.018 27.5737C23.5896 28.5197 21.8768 29.0706 20.0353 29.0706C15.0452 29.0706 11 25.0253 11 20.0353C11 15.0452 15.0452 11 20.0353 11C25.0253 11 29.0706 15.0452 29.0706 20.0353C29.0706 21.8769 28.5196 23.5898 27.5735 25.0181L33.0589 30.5035C33.7646 31.2092 33.7646 32.3534 33.0589 33.0591C32.3532 33.7648 31.209 33.7648 30.5033 33.0591L25.018 27.5737ZM25.4564 20.0355C25.4564 23.0295 23.0293 25.4566 20.0353 25.4566C17.0412 25.4566 14.6141 23.0295 14.6141 20.0355C14.6141 17.0414 17.0412 14.6143 20.0353 14.6143C23.0293 14.6143 25.4564 17.0414 25.4564 20.0355Z" fill="white"/>
</svg>
